<svg version="1.1" id="Layer_1" xmlns="http://www.w3.org/2000/svg" x="0" y="0" viewBox="-215 245.1 270.6 70.9" xml:space="preserve"><style>.st0{fill:#d5461e}.st1{fill:#132c82}</style><path id="ozjka" class="st0" d="M-74.5 276.7c.6-5.2 3.8-7 6.5-7s5.5 1.8 4.9 7l-2.6 23.1h8.6l2.6-23.3c.6-5 3.9-6.8 6.5-6.8 2.7 0 5.5 1.8 4.9 7l-2.5 23.1h8.6l2.7-24.4c.4-4.2-.2-7.8-2.6-10.9-1.7-2.2-4.7-3.4-8.1-3.4-4.3 0-7.6 1.5-10.9 4.9-1.8-3.3-4.8-4.9-8.6-4.9-3.2 0-6.5 1.4-9 4l.4-3.6h-8.2l-1.4 10.3-3.1 28h8.6l2.7-23.1"/><path id="ozjkb" class="st0" d="M10.9 276.8c.5-4.9 3.7-7.1 6.3-7.1 2.1 0 3.1.8 4.3 2.3l7.3-7.3c-2.1-2.7-4.4-3.6-7.8-3.6-3.5.1-6.8 1.5-9.1 4.1l.4-3.7H4l-4.2 38.3h8.6l2.5-23"/><path id="ozjkc" class="st0" d="M47.4 277.2H34.2c.3-1.7.6-2.7 1.3-4.1 1.2-2.3 3.3-4 6.2-4 2.9 0 4.7 1.7 5.4 4 .3 1.4.4 2.4.3 4.1m-5-16.1c-8.9 0-15.8 7.1-17.2 19.6-.6 5.8 0 10 1.5 13 5.8 10.7 22 6.6 26.8 1.3l-5.3-6.4c-2.5 2.4-4.4 3.6-8.2 3.6-4.8 0-7.2-3.6-6.6-8.5H55l.5-4.3c1.1-10.5-3.5-18.3-13.1-18.3"/><path id="ozjkd" class="st1" d="M-185.4 287.8c0-3.5-.9-6.2-2.9-8.2-1.6-1.6-4.1-2.7-7.6-3.2l-4.7-.6c-1-.1-1.9-.5-2.7-1.1-.5-.5-.7-1.1-.8-1.8 0-1.7 1.4-3.6 4.7-3.6 1.7 0 4.9-.2 7.3 2.3l6-6c-3.3-3.3-7.5-4.6-13-4.6-8.8 0-14.1 5.1-14.1 12.2 0 3.3.9 5.9 2.7 7.8 1.7 1.8 4.3 2.9 7.8 3.4l4.7.6c1.3.2 2.1.5 2.6 1 .5.6.8 1.3.8 2.3 0 2.2-1.8 3.5-5.5 3.5-3.1 0-6.6-.7-8.6-2.7l-6.1 6c2.8 3.1 9.9 5.1 15.5 5.1 8.8 0 14.1-5.1 14.1-12.2l-.2-.2"/><path id="ozjke" class="st1" d="M-153.3 288.1v-.1l.1-.9v-.1c.1-.7.1-1.3.1-2v-8.7c0-.7-.1-1.4-.1-2.1l-.1-.9v-.1c0-.3-.1-.6-.1-.9-.3-1.7-.8-3.2-1.7-4.7-.5-.8-1.1-1.6-1.8-2.3-2.8-2.8-6.1-4.4-10.8-4.4-4.7 0-8 1.5-10.8 4.4-.7.7-1.3 1.5-1.8 2.3l-.1.1-.1.2c-.1.2-.2.3-.3.5-.1.2-.2.5-.3.8l-.2.5v.1c-.9 2.5-1 5.2-1.1 8v5.4c0 2.9.2 5.6 1.1 8v.1l.2.5.1.3.2.4c.1.2.2.3.3.5l.1.2.1.1c.5.8 1.1 1.6 1.8 2.3 2.8 2.8 6.1 4.4 10.8 4.4s8-1.5 10.8-4.4c.7-.7 1.3-1.5 1.8-2.3.8-1.5 1.4-3 1.7-4.7.1.1.1-.2.1-.5m-9.4-1.2c-.2 1.9-.6 2.6-1.2 3.2-.6.8-1.5 1.3-2.4 1.5-.9.2-1.9.2-2.8 0-1-.2-1.8-.8-2.4-1.5-.5-.7-.9-1.4-1.1-3.2-.2-2.1-.3-4.1-.3-6.2 0-2.9.1-4.9.3-6.2.2-1.9.6-2.6 1.1-3.3.6-.8 1.5-1.3 2.4-1.5.9-.2 1.9-.2 2.8 0 1.1.3 1.9.9 2.4 1.5.5.7.9 1.4 1.2 3.3.2 1.3.3 3.3.3 6.2-.1 2.9-.2 4.9-.3 6.2"/><path id="ozjkf" class="st1" d="M-88.5 288.1v-.1c.1-1 .2-2 .2-3v-8.7c0-1-.1-2-.2-3v-.1l-.2-.9c-.3-1.7-.8-3.2-1.7-4.7-.5-.8-1.1-1.6-1.8-2.3-2.8-2.8-6.1-4.4-10.8-4.4-4.7 0-8 1.5-10.8 4.4-.7.7-1.3 1.4-1.8 2.3l-.1.1-.1.2-.3.5-.2.4c0 .1-.1.2-.1.3-.1.2-.2.4-.2.6l-.1.1c-.8 2.5-1 5.2-1.1 8v5.4c0 2.9.2 5.6 1.1 8l.1.1.3.9.2.4.3.5c.1.1.1.2.2.3.5.8 1.1 1.6 1.8 2.3 2.8 2.8 6.1 4.4 10.8 4.4 4.7 0 8-1.5 10.8-4.4.7-.7 1.3-1.5 1.8-2.3.8-1.5 1.4-3 1.7-4.7l.2-.6m-9.5-1.2c-.2 1.9-.6 2.6-1.2 3.2-.6.8-1.5 1.3-2.4 1.5-.9.2-1.9.2-2.8 0-.9-.2-1.8-.8-2.4-1.5-.5-.7-.9-1.4-1.1-3.2-.2-2.1-.3-4.1-.3-6.2 0-2.9.1-4.9.3-6.2.2-1.9.6-2.6 1.1-3.3.6-.8 1.5-1.3 2.4-1.5.9-.2 1.9-.2 2.8 0 1.1.3 1.9.9 2.4 1.5.5.7.9 1.4 1.2 3.3.2 1.3.3 3.3.3 6.2 0 2.9-.1 4.9-.3 6.2"/><path id="ozjkg" class="st1" d="M-134.5 269.5c3.1 0 4.3 2 4.9 4.1h9.7c-.1-.3-.1-.6-.2-.9l-.1-.6-.2-.8-.2-.7-.3-.7c-.1-.2-.2-.5-.3-.7l-.3-.7-.3-.6c-.1-.1-.1-.1-.1-.2-2.6-4.5-7.2-6.6-12.5-6.6-4.5 0-7.9 1.5-10.7 4.3-.7.7-1.3 1.5-1.8 2.3-1 1.8-1.6 3.7-1.8 5.7l-.1 1c-.1 1-.1 2-.1 3v6.5c0 1 .1 2 .1 3l.1 1c.3 2 .8 3.9 1.8 5.7.5.8 1.1 1.6 1.8 2.3 2.8 2.8 6.2 4.3 10.7 4.3 5.3 0 9.9-2.2 12.6-6.6.1-.1.1-.2.1-.2l.3-.6c.1-.2.2-.4.3-.7.1-.2.2-.5.3-.7l.3-.7.2-.7c.1-.3.2-.5.2-.8l.1-.7c.1-.3.1-.6.2-.9h-9.7c-.6 2.2-1.8 4.1-4.9 4.1-1.8 0-3.1-.7-3.8-1.6-.9-1.1-1.5-2.5-1.5-9.5s.6-8.4 1.5-9.5c.9-1 2.3-1.6 3.7-1.6"/><path id="ozjkh" class="st0" d="M-1.7 278.9v-.3c.4-5.7-.1-9.6-2.5-12.8-1.9-2.5-5.1-4.7-10.2-4.7s-8.8 2.2-11.2 4.7c-3.1 3.3-4.5 7.1-5.3 12.9v.1c-.1.6-.2 1.3-.2 1.9v.1c-.1.6-.1 1.3-.2 1.9v.2c-.5 5.8.1 9.6 2.5 12.8 1.9 2.5 5.1 4.7 10.2 4.7s8.8-2.2 11.2-4.7c3.1-3.3 4.5-7.1 5.3-12.8v-.1c.1-.6.2-1.3.2-1.9v-.1c.1-.7.2-1.3.2-1.9m-17.8-7.4c1.1-1.1 2.6-1.7 4.2-1.7 1.7 0 2.9.6 3.8 1.7 1.6 2 1.4 5.4 1 9.3-.1.7-.1 1.4-.3 2.1-.4 3-1.1 5.6-2.7 7.2-1.1 1.1-2.6 1.7-4.2 1.7-1.7 0-2.9-.6-3.8-1.7-1.6-2-1.4-5.4-1-9.3.1-.7.1-1.4.3-2.1.4-3.1 1.1-5.6 2.7-7.2"/><path id="ozjki" class="st0" d="M-86.8 316c2.3-8 7.5-52.4 8-70.9v.1c-3.5 18-8.5 62.4-8 70.8"/></svg>